<svg viewBox="0 0 800 450" xmlns="http://www.w3.org/2000/svg" preserveAspectRatio="xMidYMid slice"><linearGradient id="wall" x1="0" y1="0" x2="0" y2="1"><stop offset="0" stop-color="#d8cdb8"></stop><stop offset="1" stop-color="#bfb199"></stop></linearGradient>
  <rect width="800" height="450" fill="url(#wall)"></rect>
  <rect x="0" y="0" width="800" height="3" fill="#a89a80" opacity=".5"></rect><rect x="0" y="78" width="800" height="3" fill="#a89a80" opacity=".5"></rect><rect x="0" y="156" width="800" height="3" fill="#a89a80" opacity=".5"></rect><rect x="0" y="234" width="800" height="3" fill="#a89a80" opacity=".5"></rect><rect x="0" y="312" width="800" height="3" fill="#a89a80" opacity=".5"></rect><rect x="0" y="390" width="800" height="3" fill="#a89a80" opacity=".5"></rect>
  <rect x="250" y="60" width="300" height="330" rx="16" fill="#8d8069"></rect>
  <rect x="268" y="78" width="264" height="294" rx="10" fill="#efe6d2"></rect>
  <circle cx="400" cy="200" r="108" fill="#f8f2e2" stroke="#3a332a" stroke-width="10"></circle>
  <line x1="400" y1="108" x2="400" y2="100" stroke="#3a332a" stroke-width="6"></line><line x1="446" y1="120.32566285183164" x2="450" y2="113.39745962155612" stroke="#3a332a" stroke-width="3"></line><line x1="479.6743371481683" y1="154" x2="486.60254037844385" y2="150" stroke="#3a332a" stroke-width="3"></line><line x1="492" y1="200" x2="500" y2="200" stroke="#3a332a" stroke-width="6"></line><line x1="479.6743371481684" y1="245.99999999999997" x2="486.6025403784439" y2="249.99999999999997" stroke="#3a332a" stroke-width="3"></line><line x1="446" y1="279.6743371481684" x2="450" y2="286.6025403784439" stroke="#3a332a" stroke-width="3"></line><line x1="400" y1="292" x2="400" y2="300" stroke="#3a332a" stroke-width="6"></line><line x1="354" y1="279.6743371481684" x2="350" y2="286.6025403784439" stroke="#3a332a" stroke-width="3"></line><line x1="320.3256628518317" y1="246.00000000000006" x2="313.39745962155615" y2="250.00000000000006" stroke="#3a332a" stroke-width="3"></line><line x1="308" y1="200.00000000000003" x2="300" y2="200.00000000000003" stroke="#3a332a" stroke-width="6"></line><line x1="320.3256628518317" y1="154" x2="313.39745962155615" y2="150" stroke="#3a332a" stroke-width="3"></line><line x1="353.99999999999994" y1="120.32566285183167" x2="349.99999999999994" y2="113.39745962155617" stroke="#3a332a" stroke-width="3"></line>
  <line x1="400" y1="200" x2="338" y2="168" stroke="#3a332a" stroke-width="9" stroke-linecap="round"></line>
  <line x1="400" y1="200" x2="468" y2="138" stroke="#3a332a" stroke-width="6" stroke-linecap="round"></line>
  <line x1="400" y1="200" x2="452" y2="268" stroke="#c0543f" stroke-width="3" stroke-linecap="round"></line>
  <circle cx="400" cy="200" r="8" fill="#c0543f"></circle>
  <rect x="316" y="320" width="168" height="40" rx="8" fill="#2f2a24"></rect>
  <text x="400" y="347" text-anchor="middle" font-family="monospace" font-size="26" fill="#f2c879">23:47</text>

  <rect y="408" width="800" height="42" fill="#8d8069"></rect></svg>
